<svg width="6" height="6" viewBox="0 0 6 6" fill="none" xmlns="http://www.w3.org/2000/svg">
<g clip-path="url(#clip0_84_26)">
<path d="M2.08037 3.04641C1.61813 2.77953 1.38701 2.6461 1.39987 2.45931C1.41272 2.27251 1.65995 2.172 2.15439 1.97098L3.82726 1.29084C4.79942 0.895596 5.2855 0.697972 5.42249 0.895078C5.55947 1.09218 5.20478 1.47887 4.4954 2.25224L3.50835 3.32833C3.35238 3.49837 3.27439 3.58339 3.17016 3.5994C3.06593 3.61542 2.96601 3.55774 2.76619 3.44237L2.08037 3.04641Z" fill="#FB5607"/>
<path d="M3.91962 2.9536C4.38186 3.22048 4.61298 3.35391 4.60012 3.5407C4.58727 3.7275 4.34004 3.82801 3.8456 4.02903L2.17273 4.70917C1.20057 5.10441 0.714488 5.30204 0.577505 5.10493C0.440523 4.90783 0.795212 4.52114 1.50459 3.74777L2.49164 2.67168C2.64761 2.50164 2.7256 2.41662 2.82983 2.40061C2.93406 2.38459 3.03398 2.44227 3.2338 2.55764L3.91962 2.9536Z" fill="#FB5607"/>
</g>
<defs>
<clipPath id="clip0_84_26">
<rect width="6" height="6" fill="white"/>
</clipPath>
</defs>
</svg>
