<svg width="8" height="5" viewBox="0 0 8 5" fill="none" xmlns="http://www.w3.org/2000/svg">
<g clip-path="url(#clip0_84_39)">
<path d="M5.74152 0C5.08555 0 4.57276 0.46468 4.10857 1.05497C3.47068 0.291076 2.93721 0 2.29881 0C0.997251 0 0 1.5931 0 3.27931C0 4.33448 0.542763 5 1.45188 5C2.1062 5 2.57679 4.70987 3.41338 3.33448C3.41338 3.33448 3.76211 2.75528 4.00202 2.35629C4.08609 2.48395 4.17463 2.62151 4.26765 2.76897L4.65995 3.38966C5.42414 4.59239 5.84992 5 6.62145 5C7.50711 5 8 4.32538 8 3.24828C8 1.48276 6.98027 0 5.74152 0ZM2.77544 2.96207C2.09716 3.96207 1.86251 4.18621 1.48488 4.18621C1.09624 4.18621 0.865261 3.86532 0.865261 3.2931C0.865261 2.06897 1.51421 0.817241 2.28781 0.817241C2.70674 0.817241 3.05682 1.04479 3.59306 1.76681C3.08388 2.50136 2.77544 2.96207 2.77544 2.96207ZM5.33535 2.83618L4.8663 2.10044C4.73936 1.90628 4.61738 1.72756 4.50034 1.56429C4.92308 0.950612 5.27179 0.644829 5.68653 0.644829C6.54812 0.644829 7.2374 1.83793 7.2374 3.30345C7.2374 3.86207 7.04286 4.18621 6.63978 4.18621C6.25345 4.18621 6.06889 3.94624 5.33535 2.83618Z" fill="#FB5607"/>
</g>
<defs>
<clipPath id="clip0_84_39">
<rect width="8" height="5" fill="white"/>
</clipPath>
</defs>
</svg>
